<mxfile host="app.diagrams.net" modified="2023-04-03T11:36:51.763Z" agent="Mozilla/5.0 (Macintosh; Intel Mac OS X 10_15_7) AppleWebKit/537.36 (KHTML, like Gecko) Chrome/111.0.0.0 Safari/537.36" etag="FJNSz52AvMIQHMZiJMeI" version="21.1.1" type="github">
  <diagram id="R2lEEEUBdFMjLlhIrx00" name="Page-1">
    <mxGraphModel dx="1434" dy="796" grid="1" gridSize="10" guides="1" tooltips="1" connect="1" arrows="1" fold="1" page="1" pageScale="1" pageWidth="1100" pageHeight="1700" math="0" shadow="0" extFonts="Permanent Marker^https://fonts.googleapis.com/css?family=Permanent+Marker">
      <root>
        <mxCell id="0" />
        <mxCell id="1" parent="0" />
        <mxCell id="tqpWWJY_kguOdiEwObHu-34" value="" style="rounded=0;whiteSpace=wrap;html=1;dashed=1;dashPattern=8 8;strokeColor=#66B2FF;" parent="1" vertex="1">
          <mxGeometry x="280" y="480" width="440" height="290" as="geometry" />
        </mxCell>
        <mxCell id="tqpWWJY_kguOdiEwObHu-58" value="script-controller" style="rounded=1;whiteSpace=wrap;html=1;fillColor=#dae8fc;strokeColor=#6c8ebf;" parent="1" vertex="1">
          <mxGeometry x="302.5" y="510" width="145" height="250" as="geometry" />
        </mxCell>
        <mxCell id="tqpWWJY_kguOdiEwObHu-38" value="" style="rounded=0;whiteSpace=wrap;html=1;dashed=1;dashPattern=8 8;strokeColor=#FF6666;" parent="1" vertex="1">
          <mxGeometry x="280" y="270" width="440" height="140" as="geometry" />
        </mxCell>
        <mxCell id="tqpWWJY_kguOdiEwObHu-2" value="data-manager" style="rounded=1;whiteSpace=wrap;html=1;fillColor=#dae8fc;strokeColor=#6c8ebf;" parent="1" vertex="1">
          <mxGeometry x="580" y="680" width="120" height="60" as="geometry" />
        </mxCell>
        <mxCell id="tqpWWJY_kguOdiEwObHu-3" value="stress-tester" style="rounded=1;whiteSpace=wrap;html=1;fillColor=#dae8fc;strokeColor=#6c8ebf;" parent="1" vertex="1">
          <mxGeometry x="580" y="510" width="120" height="60" as="geometry" />
        </mxCell>
        <mxCell id="tqpWWJY_kguOdiEwObHu-4" value="diff-tester" style="rounded=1;whiteSpace=wrap;html=1;fillColor=#d5e8d4;strokeColor=#82b366;" parent="1" vertex="1">
          <mxGeometry x="315" y="595" width="120" height="60" as="geometry" />
        </mxCell>
        <mxCell id="tqpWWJY_kguOdiEwObHu-5" value="api-tester" style="rounded=1;whiteSpace=wrap;html=1;fillColor=#d5e8d4;strokeColor=#82b366;" parent="1" vertex="1">
          <mxGeometry x="315" y="680" width="120" height="60" as="geometry" />
        </mxCell>
        <mxCell id="tqpWWJY_kguOdiEwObHu-6" value="" style="shape=cylinder3;whiteSpace=wrap;html=1;boundedLbl=1;backgroundOutline=1;size=15;rotation=-90;" parent="1" vertex="1">
          <mxGeometry x="850" y="265" width="135" height="150" as="geometry" />
        </mxCell>
        <mxCell id="tqpWWJY_kguOdiEwObHu-27" value="model-mananger" style="rounded=1;whiteSpace=wrap;html=1;fillColor=#fff2cc;strokeColor=#d6b656;" parent="1" vertex="1">
          <mxGeometry x="580" y="330" width="120" height="60" as="geometry" />
        </mxCell>
        <mxCell id="tqpWWJY_kguOdiEwObHu-31" value="test-center" style="rounded=1;whiteSpace=wrap;html=1;fillColor=#f8cecc;strokeColor=#b85450;" parent="1" vertex="1">
          <mxGeometry x="300" y="330" width="240" height="60" as="geometry" />
        </mxCell>
        <mxCell id="tqpWWJY_kguOdiEwObHu-32" value="zk配置中心" style="rounded=0;whiteSpace=wrap;html=1;" parent="1" vertex="1">
          <mxGeometry x="70" y="270" width="100" height="500" as="geometry" />
        </mxCell>
        <mxCell id="tqpWWJY_kguOdiEwObHu-35" value="应用层" style="text;html=1;align=center;verticalAlign=middle;resizable=0;points=[];autosize=1;strokeColor=none;fillColor=none;" parent="1" vertex="1">
          <mxGeometry x="465" y="490" width="60" height="30" as="geometry" />
        </mxCell>
        <mxCell id="tqpWWJY_kguOdiEwObHu-39" value="接入层" style="text;html=1;align=center;verticalAlign=middle;resizable=0;points=[];autosize=1;strokeColor=none;fillColor=none;" parent="1" vertex="1">
          <mxGeometry x="465" y="270" width="60" height="30" as="geometry" />
        </mxCell>
        <mxCell id="tqpWWJY_kguOdiEwObHu-40" value="MySQL" style="text;html=1;align=center;verticalAlign=middle;resizable=0;points=[];autosize=1;strokeColor=none;fillColor=none;" parent="1" vertex="1">
          <mxGeometry x="892.5" y="325" width="60" height="30" as="geometry" />
        </mxCell>
        <mxCell id="tqpWWJY_kguOdiEwObHu-41" value="" style="shape=cylinder3;whiteSpace=wrap;html=1;boundedLbl=1;backgroundOutline=1;size=15;rotation=-90;" parent="1" vertex="1">
          <mxGeometry x="780" y="550" width="270" height="150" as="geometry" />
        </mxCell>
        <mxCell id="tqpWWJY_kguOdiEwObHu-42" value="Redis" style="text;html=1;align=center;verticalAlign=middle;resizable=0;points=[];autosize=1;strokeColor=none;fillColor=none;" parent="1" vertex="1">
          <mxGeometry x="897.5" y="620" width="50" height="30" as="geometry" />
        </mxCell>
        <mxCell id="tqpWWJY_kguOdiEwObHu-43" value="前端" style="rounded=1;whiteSpace=wrap;html=1;" parent="1" vertex="1">
          <mxGeometry x="210" y="110" width="620" height="60" as="geometry" />
        </mxCell>
        <mxCell id="tqpWWJY_kguOdiEwObHu-44" value="" style="endArrow=classic;html=1;rounded=0;exitX=0.5;exitY=1;exitDx=0;exitDy=0;" parent="1" source="tqpWWJY_kguOdiEwObHu-43" edge="1">
          <mxGeometry width="50" height="50" relative="1" as="geometry">
            <mxPoint x="415" y="240" as="sourcePoint" />
            <mxPoint x="520" y="260" as="targetPoint" />
          </mxGeometry>
        </mxCell>
        <mxCell id="tqpWWJY_kguOdiEwObHu-45" value="配置" style="endArrow=classic;html=1;rounded=0;exitX=0;exitY=0.5;exitDx=0;exitDy=0;entryX=1;entryY=0.178;entryDx=0;entryDy=0;entryPerimeter=0;" parent="1" source="tqpWWJY_kguOdiEwObHu-31" target="tqpWWJY_kguOdiEwObHu-32" edge="1">
          <mxGeometry width="50" height="50" relative="1" as="geometry">
            <mxPoint x="190" y="400" as="sourcePoint" />
            <mxPoint x="240" y="350" as="targetPoint" />
          </mxGeometry>
        </mxCell>
        <mxCell id="tqpWWJY_kguOdiEwObHu-46" value="" style="endArrow=classic;html=1;rounded=0;entryX=0;entryY=0.5;entryDx=0;entryDy=0;exitX=0.99;exitY=0.714;exitDx=0;exitDy=0;exitPerimeter=0;" parent="1" source="tqpWWJY_kguOdiEwObHu-32" target="tqpWWJY_kguOdiEwObHu-34" edge="1">
          <mxGeometry width="50" height="50" relative="1" as="geometry">
            <mxPoint x="190" y="620" as="sourcePoint" />
            <mxPoint x="250" y="600" as="targetPoint" />
          </mxGeometry>
        </mxCell>
        <mxCell id="tqpWWJY_kguOdiEwObHu-47" value="获取配置" style="edgeLabel;html=1;align=center;verticalAlign=middle;resizable=0;points=[];" parent="tqpWWJY_kguOdiEwObHu-46" vertex="1" connectable="0">
          <mxGeometry x="-0.1091" y="2" relative="1" as="geometry">
            <mxPoint as="offset" />
          </mxGeometry>
        </mxCell>
        <mxCell id="tqpWWJY_kguOdiEwObHu-49" value="" style="endArrow=classic;html=1;rounded=0;exitX=1;exitY=0.5;exitDx=0;exitDy=0;entryX=0.5;entryY=0;entryDx=0;entryDy=0;entryPerimeter=0;" parent="1" source="tqpWWJY_kguOdiEwObHu-38" target="tqpWWJY_kguOdiEwObHu-6" edge="1">
          <mxGeometry width="50" height="50" relative="1" as="geometry">
            <mxPoint x="750" y="400" as="sourcePoint" />
            <mxPoint x="800" y="350" as="targetPoint" />
          </mxGeometry>
        </mxCell>
        <mxCell id="tqpWWJY_kguOdiEwObHu-56" value="测试结果、模型数据" style="edgeLabel;html=1;align=center;verticalAlign=middle;resizable=0;points=[];" parent="tqpWWJY_kguOdiEwObHu-49" vertex="1" connectable="0">
          <mxGeometry x="-0.0857" relative="1" as="geometry">
            <mxPoint as="offset" />
          </mxGeometry>
        </mxCell>
        <mxCell id="tqpWWJY_kguOdiEwObHu-50" value="" style="endArrow=classic;html=1;rounded=0;exitX=1;exitY=0.5;exitDx=0;exitDy=0;entryX=0.185;entryY=0;entryDx=0;entryDy=0;entryPerimeter=0;" parent="1" source="tqpWWJY_kguOdiEwObHu-2" target="tqpWWJY_kguOdiEwObHu-41" edge="1">
          <mxGeometry width="50" height="50" relative="1" as="geometry">
            <mxPoint x="790" y="720" as="sourcePoint" />
            <mxPoint x="810" y="700" as="targetPoint" />
          </mxGeometry>
        </mxCell>
        <mxCell id="tqpWWJY_kguOdiEwObHu-51" value="缓存测试数据" style="edgeLabel;html=1;align=center;verticalAlign=middle;resizable=0;points=[];" parent="tqpWWJY_kguOdiEwObHu-50" vertex="1" connectable="0">
          <mxGeometry x="0.0452" y="-1" relative="1" as="geometry">
            <mxPoint as="offset" />
          </mxGeometry>
        </mxCell>
        <mxCell id="tqpWWJY_kguOdiEwObHu-52" value="" style="endArrow=classic;html=1;rounded=0;entryX=1;entryY=0.5;entryDx=0;entryDy=0;exitX=0.5;exitY=0;exitDx=0;exitDy=0;exitPerimeter=0;" parent="1" source="tqpWWJY_kguOdiEwObHu-41" target="tqpWWJY_kguOdiEwObHu-4" edge="1">
          <mxGeometry width="50" height="50" relative="1" as="geometry">
            <mxPoint x="840" y="540" as="sourcePoint" />
            <mxPoint x="810" y="560" as="targetPoint" />
          </mxGeometry>
        </mxCell>
        <mxCell id="tqpWWJY_kguOdiEwObHu-55" value="获取测试数据" style="edgeLabel;html=1;align=center;verticalAlign=middle;resizable=0;points=[];" parent="tqpWWJY_kguOdiEwObHu-52" vertex="1" connectable="0">
          <mxGeometry x="0.0315" y="-2" relative="1" as="geometry">
            <mxPoint as="offset" />
          </mxGeometry>
        </mxCell>
        <mxCell id="tqpWWJY_kguOdiEwObHu-53" value="" style="endArrow=classic;html=1;rounded=0;entryX=1;entryY=0.5;entryDx=0;entryDy=0;exitX=0.815;exitY=0.02;exitDx=0;exitDy=0;exitPerimeter=0;" parent="1" source="tqpWWJY_kguOdiEwObHu-41" target="tqpWWJY_kguOdiEwObHu-3" edge="1">
          <mxGeometry width="50" height="50" relative="1" as="geometry">
            <mxPoint x="720" y="660" as="sourcePoint" />
            <mxPoint x="770" y="610" as="targetPoint" />
          </mxGeometry>
        </mxCell>
        <mxCell id="tqpWWJY_kguOdiEwObHu-54" value="获取测试数据" style="edgeLabel;html=1;align=center;verticalAlign=middle;resizable=0;points=[];" parent="tqpWWJY_kguOdiEwObHu-53" vertex="1" connectable="0">
          <mxGeometry x="0.0385" y="1" relative="1" as="geometry">
            <mxPoint as="offset" />
          </mxGeometry>
        </mxCell>
        <mxCell id="tqpWWJY_kguOdiEwObHu-57" value="" style="endArrow=classic;html=1;rounded=0;exitX=0.25;exitY=1;exitDx=0;exitDy=0;entryX=0.182;entryY=0;entryDx=0;entryDy=0;entryPerimeter=0;" parent="1" source="tqpWWJY_kguOdiEwObHu-31" target="tqpWWJY_kguOdiEwObHu-34" edge="1">
          <mxGeometry width="50" height="50" relative="1" as="geometry">
            <mxPoint x="770" y="490" as="sourcePoint" />
            <mxPoint x="820" y="440" as="targetPoint" />
          </mxGeometry>
        </mxCell>
        <mxCell id="tqpWWJY_kguOdiEwObHu-62" value="下达任务" style="edgeLabel;html=1;align=center;verticalAlign=middle;resizable=0;points=[];" parent="tqpWWJY_kguOdiEwObHu-57" vertex="1" connectable="0">
          <mxGeometry x="0.0666" y="-2" relative="1" as="geometry">
            <mxPoint as="offset" />
          </mxGeometry>
        </mxCell>
        <mxCell id="tqpWWJY_kguOdiEwObHu-60" value="script-controller" style="text;html=1;align=center;verticalAlign=middle;resizable=0;points=[];autosize=1;strokeColor=none;fillColor=none;" parent="1" vertex="1">
          <mxGeometry x="320" y="520" width="110" height="30" as="geometry" />
        </mxCell>
        <mxCell id="tqpWWJY_kguOdiEwObHu-61" value="" style="endArrow=classic;html=1;rounded=0;entryX=0.75;entryY=1;entryDx=0;entryDy=0;exitX=0.457;exitY=-0.007;exitDx=0;exitDy=0;exitPerimeter=0;" parent="1" source="tqpWWJY_kguOdiEwObHu-34" target="tqpWWJY_kguOdiEwObHu-31" edge="1">
          <mxGeometry width="50" height="50" relative="1" as="geometry">
            <mxPoint x="480" y="440" as="sourcePoint" />
            <mxPoint x="510" y="430" as="targetPoint" />
          </mxGeometry>
        </mxCell>
        <mxCell id="tqpWWJY_kguOdiEwObHu-63" value="上报测试结果" style="edgeLabel;html=1;align=center;verticalAlign=middle;resizable=0;points=[];" parent="tqpWWJY_kguOdiEwObHu-61" vertex="1" connectable="0">
          <mxGeometry x="-0.0684" y="1" relative="1" as="geometry">
            <mxPoint as="offset" />
          </mxGeometry>
        </mxCell>
      </root>
    </mxGraphModel>
  </diagram>
</mxfile>
